<mxfile host="Electron" modified="2024-07-17T14:31:00.868Z" agent="Mozilla/5.0 (Windows NT 10.0; Win64; x64) AppleWebKit/537.36 (KHTML, like Gecko) draw.io/24.6.4 Chrome/124.0.6367.207 Electron/30.0.6 Safari/537.36" etag="AzwSgNI88pZCd8p6ClTY" version="24.6.4" type="device">
  <diagram id="C5RBs43oDa-KdzZeNtuy" name="Page-1">
    <mxGraphModel dx="1050" dy="621" grid="1" gridSize="10" guides="1" tooltips="1" connect="1" arrows="1" fold="1" page="1" pageScale="1" pageWidth="827" pageHeight="1169" math="0" shadow="0">
      <root>
        <mxCell id="WIyWlLk6GJQsqaUBKTNV-0" />
        <mxCell id="WIyWlLk6GJQsqaUBKTNV-1" parent="WIyWlLk6GJQsqaUBKTNV-0" />
        <mxCell id="WIyWlLk6GJQsqaUBKTNV-2" value="" style="rounded=0;html=1;jettySize=auto;orthogonalLoop=1;fontSize=11;endArrow=block;endFill=0;endSize=8;strokeWidth=1;shadow=0;labelBackgroundColor=none;edgeStyle=orthogonalEdgeStyle;fontFamily=Trebuchet MS;" parent="WIyWlLk6GJQsqaUBKTNV-1" source="WIyWlLk6GJQsqaUBKTNV-3" target="WIyWlLk6GJQsqaUBKTNV-6" edge="1">
          <mxGeometry relative="1" as="geometry" />
        </mxCell>
        <mxCell id="WIyWlLk6GJQsqaUBKTNV-3" value="Teste de Estabilidade" style="rounded=1;whiteSpace=wrap;html=1;fontSize=12;glass=0;strokeWidth=1;shadow=0;fontFamily=Trebuchet MS;" parent="WIyWlLk6GJQsqaUBKTNV-1" vertex="1">
          <mxGeometry x="250" y="180" width="100" height="40" as="geometry" />
        </mxCell>
        <mxCell id="WIyWlLk6GJQsqaUBKTNV-5" value="NÃO" style="edgeStyle=orthogonalEdgeStyle;rounded=0;html=1;jettySize=auto;orthogonalLoop=1;fontSize=11;endArrow=block;endFill=0;endSize=8;strokeWidth=1;shadow=0;labelBackgroundColor=none;fontFamily=Trebuchet MS;" parent="WIyWlLk6GJQsqaUBKTNV-1" source="WIyWlLk6GJQsqaUBKTNV-6" target="WIyWlLk6GJQsqaUBKTNV-7" edge="1">
          <mxGeometry x="-0.2" y="10" relative="1" as="geometry">
            <mxPoint as="offset" />
          </mxGeometry>
        </mxCell>
        <mxCell id="X03DwOi2yjzAOW-Rf4GD-6" value="" style="edgeStyle=orthogonalEdgeStyle;rounded=0;orthogonalLoop=1;jettySize=auto;html=1;endArrow=block;endFill=0;endSize=8;fontFamily=Trebuchet MS;" parent="WIyWlLk6GJQsqaUBKTNV-1" source="WIyWlLk6GJQsqaUBKTNV-6" target="X03DwOi2yjzAOW-Rf4GD-4" edge="1">
          <mxGeometry relative="1" as="geometry" />
        </mxCell>
        <mxCell id="X03DwOi2yjzAOW-Rf4GD-7" value="SIM" style="edgeLabel;html=1;align=center;verticalAlign=middle;resizable=0;points=[];fontFamily=Trebuchet MS;" parent="X03DwOi2yjzAOW-Rf4GD-6" vertex="1" connectable="0">
          <mxGeometry x="-0.56" y="-1" relative="1" as="geometry">
            <mxPoint x="17" y="-1" as="offset" />
          </mxGeometry>
        </mxCell>
        <mxCell id="WIyWlLk6GJQsqaUBKTNV-6" value="É mistura?" style="rhombus;whiteSpace=wrap;html=1;shadow=0;fontFamily=Trebuchet MS;fontSize=12;align=center;strokeWidth=1;spacing=6;spacingTop=-4;" parent="WIyWlLk6GJQsqaUBKTNV-1" vertex="1">
          <mxGeometry x="250" y="250" width="100" height="80" as="geometry" />
        </mxCell>
        <mxCell id="X03DwOi2yjzAOW-Rf4GD-3" value="" style="edgeStyle=orthogonalEdgeStyle;rounded=0;orthogonalLoop=1;jettySize=auto;html=1;endSize=8;endArrow=block;endFill=0;fontFamily=Trebuchet MS;" parent="WIyWlLk6GJQsqaUBKTNV-1" source="WIyWlLk6GJQsqaUBKTNV-7" target="X03DwOi2yjzAOW-Rf4GD-2" edge="1">
          <mxGeometry relative="1" as="geometry" />
        </mxCell>
        <mxCell id="WIyWlLk6GJQsqaUBKTNV-7" value="Fluido está na fase líquida ou vapor" style="rounded=1;whiteSpace=wrap;html=1;fontSize=12;glass=0;strokeWidth=1;shadow=0;fontFamily=Trebuchet MS;" parent="WIyWlLk6GJQsqaUBKTNV-1" vertex="1">
          <mxGeometry x="400" y="255" width="69.12" height="70" as="geometry" />
        </mxCell>
        <mxCell id="X03DwOi2yjzAOW-Rf4GD-1" value="" style="edgeStyle=orthogonalEdgeStyle;rounded=0;orthogonalLoop=1;jettySize=auto;html=1;endArrow=block;endFill=0;endSize=8;fontFamily=Trebuchet MS;" parent="WIyWlLk6GJQsqaUBKTNV-1" source="X03DwOi2yjzAOW-Rf4GD-0" target="WIyWlLk6GJQsqaUBKTNV-3" edge="1">
          <mxGeometry relative="1" as="geometry" />
        </mxCell>
        <mxCell id="X03DwOi2yjzAOW-Rf4GD-0" value="Início" style="strokeWidth=2;html=1;shape=mxgraph.flowchart.start_2;whiteSpace=wrap;fontFamily=Trebuchet MS;fillColor=#E0E0E0;fontColor=#333333;strokeColor=#666666;fillStyle=solid;gradientColor=none;" parent="WIyWlLk6GJQsqaUBKTNV-1" vertex="1">
          <mxGeometry x="265" y="80" width="70" height="70" as="geometry" />
        </mxCell>
        <mxCell id="X03DwOi2yjzAOW-Rf4GD-2" value="Fim" style="strokeWidth=2;html=1;shape=mxgraph.flowchart.terminator;whiteSpace=wrap;fontFamily=Trebuchet MS;fillColor=#E0E0E0;fillStyle=solid;" parent="WIyWlLk6GJQsqaUBKTNV-1" vertex="1">
          <mxGeometry x="506.94" y="260" width="100" height="60" as="geometry" />
        </mxCell>
        <mxCell id="X03DwOi2yjzAOW-Rf4GD-11" value="" style="edgeStyle=orthogonalEdgeStyle;rounded=0;orthogonalLoop=1;jettySize=auto;html=1;endSize=8;endArrow=block;endFill=0;fontFamily=Trebuchet MS;" parent="WIyWlLk6GJQsqaUBKTNV-1" source="X03DwOi2yjzAOW-Rf4GD-4" target="X03DwOi2yjzAOW-Rf4GD-10" edge="1">
          <mxGeometry relative="1" as="geometry" />
        </mxCell>
        <mxCell id="X03DwOi2yjzAOW-Rf4GD-4" value="Cálculo de &lt;i&gt;Flash&lt;/i&gt;" style="rounded=1;whiteSpace=wrap;html=1;fontSize=12;glass=0;strokeWidth=1;shadow=0;fontFamily=Trebuchet MS;" parent="WIyWlLk6GJQsqaUBKTNV-1" vertex="1">
          <mxGeometry x="250" y="360" width="100" height="40" as="geometry" />
        </mxCell>
        <mxCell id="X03DwOi2yjzAOW-Rf4GD-8" value="Determina se o fluido nessas condições é estável ou não" style="text;html=1;align=center;verticalAlign=middle;whiteSpace=wrap;rounded=0;fontFamily=Trebuchet MS;" parent="WIyWlLk6GJQsqaUBKTNV-1" vertex="1">
          <mxGeometry x="360.88" y="177.5" width="179.12" height="45" as="geometry" />
        </mxCell>
        <mxCell id="X03DwOi2yjzAOW-Rf4GD-9" value="Define frações dos componentes das fases líquida e vapor" style="text;html=1;align=center;verticalAlign=middle;whiteSpace=wrap;rounded=0;fontFamily=Trebuchet MS;" parent="WIyWlLk6GJQsqaUBKTNV-1" vertex="1">
          <mxGeometry x="361.77" y="357.5" width="179.12" height="45" as="geometry" />
        </mxCell>
        <mxCell id="X03DwOi2yjzAOW-Rf4GD-10" value="Fim" style="strokeWidth=2;html=1;shape=mxgraph.flowchart.terminator;whiteSpace=wrap;fontFamily=Trebuchet MS;fillColor=#E0E0E0;fillStyle=solid;" parent="WIyWlLk6GJQsqaUBKTNV-1" vertex="1">
          <mxGeometry x="250" y="430" width="100" height="60" as="geometry" />
        </mxCell>
        <mxCell id="X03DwOi2yjzAOW-Rf4GD-12" value="Processo inicia-se com valores de &lt;b&gt;Pressão (P)&lt;/b&gt;, &lt;b&gt;Temperatura (T)&amp;nbsp;&lt;/b&gt;e &lt;b&gt;Composição (z&lt;sub&gt;i&lt;/sub&gt;)&amp;nbsp;&lt;/b&gt;do fluido" style="text;html=1;align=center;verticalAlign=middle;whiteSpace=wrap;rounded=0;fontFamily=Trebuchet MS;" parent="WIyWlLk6GJQsqaUBKTNV-1" vertex="1">
          <mxGeometry x="360.88" y="80" width="180.01" height="70" as="geometry" />
        </mxCell>
      </root>
    </mxGraphModel>
  </diagram>
</mxfile>
